<svg xmlns="http://www.w3.org/2000/svg" viewBox="0 0 20 20" class="AvailabilityInfoTooltip-icon-hr8"><g transform="translate(0.625 0.625)"><g transform="translate(0 0)"><path d="M14.375,8.759A5.625,5.625,0,1,1,8.75,14.384,5.631,5.631,0,0,1,14.375,8.759Zm0,10A4.375,4.375,0,1,0,10,14.384,4.38,4.38,0,0,0,14.375,18.759Z" transform="translate(-0.625 -0.634)"/><path d="M16.585,15.009h-2.21a.625.625,0,0,1-.625-.625v-2.21a.625.625,0,0,1,1.25,0v1.585h1.585a.625.625,0,0,1,0,1.25Z" transform="translate(-0.625 -0.634)"/><path d="M8.75,9.384H4.375a.625.625,0,0,1,0-1.25H8.75a.625.625,0,0,1,0,1.25Z" transform="translate(-0.625 -0.634)"/><path d="M6.875,12.509h-2.5a.625.625,0,0,1,0-1.25h2.5a.625.625,0,0,1,0,1.25Z" transform="translate(-0.625 -0.634)"/><path d="M6.875,15.634h-2.5a.625.625,0,0,1,0-1.25h2.5a.625.625,0,0,1,0,1.25Z" transform="translate(-0.625 -0.634)"/><path d="M8.125,20.009H1.875A1.875,1.875,0,0,1,0,18.134V5.009A1.877,1.877,0,0,1,1.875,3.134H4.427a3.751,3.751,0,0,1,7.4,0h2.552A1.877,1.877,0,0,1,16.25,5.009V6.884a.625.625,0,1,1-1.25,0V5.009a.626.626,0,0,0-.625-.625H11.25a.625.625,0,0,1-.625-.625,2.5,2.5,0,0,0-5,0A.625.625,0,0,1,5,4.384H1.875a.626.626,0,0,0-.625.625V18.134a.625.625,0,0,0,.625.625h6.25a.625.625,0,0,1,0,1.25Z" transform="translate(-0.625 -0.634)"/><path d="M8.125,4.384a.937.937,0,1,1,.938-.937A.939.939,0,0,1,8.125,4.384Z" transform="translate(-0.625 -0.634)"/></g></g></svg>