<svg xmlns="http://www.w3.org/2000/svg" viewBox="0 0 47 47" class="FooterLinks-icon-Fzx" customiconfillclass="StaticFooter-iconFillClass-zNl" aria-hidden="true"><path d="M23.5 47a23.506 23.506 0 0 1-9.147-45.153 23.506 23.506 0 0 1 18.294 43.306A23.353 23.353 0 0 1 23.5 47Zm1.548-38.67h-1.577c-4.113.008-4.649.027-6.254.1a11.142 11.142 0 0 0-3.68.713 7.761 7.761 0 0 0-4.428 4.442 11.248 11.248 0 0 0-.7 3.685c-.07 1.593-.086 2.126-.079 6.253s.027 4.65.1 6.255a11.162 11.162 0 0 0 .713 3.679 7.76 7.76 0 0 0 4.445 4.429 11.231 11.231 0 0 0 3.684.7c1.424.062 2 .081 4.64.081h1.618c4.107-.008 4.644-.026 6.255-.1a11.213 11.213 0 0 0 3.679-.713 7.751 7.751 0 0 0 4.427-4.445 11.156 11.156 0 0 0 .7-3.682c.072-1.629.088-2.17.08-6.255s-.027-4.626-.1-6.253a11.175 11.175 0 0 0-.712-3.681 7.751 7.751 0 0 0-4.444-4.428 11.171 11.171 0 0 0-3.684-.7c-1.437-.061-2.017-.08-4.683-.08Zm-3.214 27.61c-2.6 0-3.137-.023-4.438-.079a8.416 8.416 0 0 1-2.818-.517 5.025 5.025 0 0 1-2.885-2.873 8.434 8.434 0 0 1-.527-2.817c-.075-1.6-.091-2.08-.1-6.129-.009-4.033.006-4.515.076-6.128a8.418 8.418 0 0 1 .516-2.817 5.019 5.019 0 0 1 2.873-2.88 8.4 8.4 0 0 1 2.815-.527c1.579-.075 2.055-.092 6.129-.1h1.757c2.454 0 3 .019 4.374.079a8.382 8.382 0 0 1 2.816.516 5.022 5.022 0 0 1 2.885 2.875 8.348 8.348 0 0 1 .527 2.814c.077 1.612.094 2.094.1 6.129.007 4.073-.007 4.55-.076 6.129a8.431 8.431 0 0 1-.516 2.818 5.03 5.03 0 0 1-2.875 2.884 8.417 8.417 0 0 1-2.814.527c-1.582.075-2.058.091-6.131.1ZM23.5 15.71h-.017a7.79 7.79 0 0 0 .017 15.579h.015A7.79 7.79 0 0 0 23.5 15.71Zm8.077-2.143a1.821 1.821 0 1 0 1.823 1.819 1.823 1.823 0 0 0-1.824-1.817ZM23.5 28.556a5.057 5.057 0 0 1-.008-10.113h.01a5.057 5.057 0 0 1 .01 10.113Z"/></svg>