<svg xmlns="http://www.w3.org/2000/svg" width="15.065" height="15.062" viewBox="0 0 15.06 15.06" class="ReportButton-icon-zJL"><path d="M7.53,12.72A.74.74,0,1,1,8.27,12,.74.74,0,0,1,7.53,12.72Z"/><path d="M7.53,10.37a.5.5,0,0,1-.5-.5V5.19a.5.5,0,0,1,.5-.5.5.5,0,0,1,.5.5V9.87A.5.5,0,0,1,7.53,10.37Z"/><path d="M7.53,0A1.64,1.64,0,0,1,9,.91L14.91,13a1.44,1.44,0,0,1-.66,1.94,1.4,1.4,0,0,1-.64.15H1.45A1.45,1.45,0,0,1,0,13.61,1.43,1.43,0,0,1,.15,13L6.07.91A1.65,1.65,0,0,1,7.53,0Zm6.08,14.06a.46.46,0,0,0,.41-.65L8.1,1.35a.64.64,0,0,0-.85-.29A.71.71,0,0,0,7,1.35L1.05,13.41a.46.46,0,0,0,.2.61.45.45,0,0,0,.2,0Z"/></svg>