<svg xmlns="http://www.w3.org/2000/svg" viewBox="-4334 -10720 14 13.363" class="Project-icon-qll"><g transform="translate(-2057 -6445)"><path d="M14.682 6h-2.068a.159.159 0 0 0-.159.159v.955a.159.159 0 0 0 .159.159h1.114v7H2.273v-7h1.113a.159.159 0 0 0 .159-.159v-.955A.159.159 0 0 0 3.386 6H1.318A.318.318 0 0 0 1 6.318v8.909a.318.318 0 0 0 .318.318h13.364a.318.318 0 0 0 .318-.318V6.318A.318.318 0 0 0 14.682 6z" transform="translate(-2278 -4277.182)"/><path d="M13.282 3.287L10.188 0 7.1 3.287a.318.318 0 0 0 .237.531h1.579v4.3a.159.159 0 0 0 .159.159H11.3a.159.159 0 0 0 .159-.159v-4.3h1.584a.318.318 0 0 0 .237-.531z" transform="translate(-2280.188 -4275)"/></g></svg>