<svg version="1.1" xmlns="http://www.w3.org/2000/svg" xmlns:xlink="http://www.w3.org/1999/xlink" viewBox="0 0 20 20" xml:space="preserve" class="FooterLinks-icon-Fzx" aria-hidden="true"><path class="" d="M20,10c0,5.5-4.5,10-10,10S0,15.5,0,10S4.5,0,10,0S20,4.5,20,10z"/><path class="LinkedIn-icon-bjP StaticFooter-iconFillClass-zNl" d="M7.5,5.2c0-0.8-0.7-1.5-1.7-1.5S4.2,4.3,4.2,5.2s0.7,1.5,1.7,1.5l0,0C6.8,6.7,7.5,6,7.5,5.2z"/><rect class="LinkedIn-icon-bjP StaticFooter-iconFillClass-zNl" x="4.7" y="8" width="2.5" height="7"/><path class="LinkedIn-icon-bjP StaticFooter-iconFillClass-zNl" d="M16.2,11.2c0-2.3-1.2-3.7-2.8-3.7c-1,0-1.8,0.7-2,1.5l-0.2-1H8.7c0,0.3,0,1.7,0,1.7V15h2.5v-3.8c0-1,0.5-1.7,1.2-1.7c0.8,0,1.3,0.3,1.3,1.7v3.7h2.5V11.2z"/></svg>