<svg xmlns="http://www.w3.org/2000/svg" viewBox="0 0 20 20" aria-hidden="true"><defs/><g fill="none" stroke="currentColor" stroke-linecap="round" stroke-linejoin="round" stroke-width="1.25"><path d="M18.858 12.392L12.5 18.75l-3.125.625L10 16.25l6.358-6.358a1.762 1.762 0 012.493 0l.007.007a1.762 1.762 0 010 2.493z"/><path d="M6.875 16.875h-5a1.25 1.25 0 01-1.25-1.25V1.875a1.25 1.25 0 011.25-1.25h8.857a1.25 1.25 0 01.883.366l2.394 2.394a1.25 1.25 0 01.366.883v2.607"/><path d="M4.375 4.687A.312.312 0 114.062 5a.312.312 0 01.312-.312"/><path d="M10.833 9.2L9.375 6.875a.624.624 0 00-1.032-.012L6.677 9.239 5.65 8.417a.625.625 0 00-.911.141l-1.614 3.317h5"/></g></svg>