<svg xmlns="http://www.w3.org/2000/svg" width="122.206" height="120.737" viewBox="0 0 122.206 120.737" class="FooterLinks-icon-Fzx" aria-hidden="true"><path d="M78.194,6.621C95.68,10.216,108.975,19.2,118,34.15c10.976,18.187,12.267,37.206,4,56.777-7.621,18.049-21.51,28.962-39.955,34.513a29.894,29.894,0,0,1-4.906.609V83.293H90.526l2.958-17.058H77c0-4.906-.23-9.207.065-13.473.292-4.223,2.826-6.643,7.163-6.8,2.819-.1,5.644-.019,8.953-.019V29.958c-10.55-1.466-21.326-3.3-30.442,4.931-9.3,8.4-6.389,19.937-7.018,31h-14.3V83.07H55.509v43.587c-4.678-1.418-9.219-2.311-13.352-4.131-19.674-8.665-32.034-23.909-35.9-44.757C1.191,50.494,13.685,25.2,38.406,11.938,50.842,5.264,64.277,5.29,78.194,6.621Z" transform="translate(-5.142 -5.92)" class="FacebookSimplified-icon-qXb StaticFooter-iconClass-JdV"/></svg>