<svg xmlns="http://www.w3.org/2000/svg" viewBox="0 0 24 24" aria-hidden="true"><path d="M23.14 24h-.07a.75.75 0 0 1-.68-.81l.1-1.12c.1-1.12-.65-2.16-1.75-2.4l-3.65-.81a.758.758 0 0 1-.59-.73v-5.74c0-.3-.12-.58-.33-.8-.21-.21-.5-.33-.8-.33-.35 0-.62.11-.81.3-.2.2-.31.46-.31.74v9.29c0 .28-.16.54-.41.67-.25.13-.56.1-.79-.07l-1.48-1.11a.77.77 0 0 0-1.09.16.78.78 0 0 0 0 .94l.47.63a.75.75 0 0 1-1.2.9l-.47-.63c-.6-.8-.6-1.93 0-2.73a2.272 2.272 0 0 1 3.19-.46l.28.21v-7.8a2.544 2.544 0 0 1 2.54-2.53h.02c.76 0 1.42.27 1.92.77S18 11.7 18 12.4v5.14l3.06.68c1.84.41 3.09 2.13 2.92 4l-.1 1.12c-.03.39-.36.68-.75.68Z"/><path d="M6.75 20.07h-4.5C1.01 20.07 0 19.06 0 17.82V2.25C0 1.01 1.01 0 2.25 0h13.5C16.99 0 18 1.01 18 2.25V7.5c0 .41-.34.75-.75.75s-.75-.34-.75-.75V2.25c0-.41-.34-.75-.75-.75H2.25c-.41 0-.75.34-.75.75v15.57c0 .41.34.75.75.75h4.5c.41 0 .75.34.75.75s-.34.75-.75.75Z"/><path d="M11.35 9.55c-.21-.1-.43-.19-.66-.27 1-.59 1.69-1.66 1.69-2.9C12.38 4.52 10.87 3 9 3S5.62 4.51 5.62 6.38c0 1.25.69 2.33 1.7 2.91a5.23 5.23 0 0 0-3.55 4.86c0 .03-.02.07-.02.1 0 .41.34.75.75.75h6c.41 0 .75-.34.75-.75s-.34-.75-.75-.75H5.35c.04-.17.07-.34.13-.5A3.74 3.74 0 0 1 9 10.5c.58 0 1.16.13 1.68.39.37.18.82.03 1-.34s.03-.82-.34-1ZM9 4.51c1.03 0 1.88.84 1.88 1.88S10.04 8.27 9 8.27s-1.88-.84-1.88-1.88S7.96 4.51 9 4.51Z"/></svg>