<svg xmlns="http://www.w3.org/2000/svg" viewBox="0 0 24 24" aria-hidden="true"><path d="M17.25 24c-3.72 0-6.75-3.03-6.75-6.75s3.03-6.75 6.75-6.75S24 13.53 24 17.25 20.97 24 17.25 24Zm0-12a5.25 5.25 0 1 0 0 10.5 5.25 5.25 0 1 0 0-10.5Z"/><path d="M20.03 17.47a.754.754 0 0 0-1.06 0l-.97.97v-4.19c0-.41-.34-.75-.75-.75s-.75.34-.75.75v4.19l-.97-.97c-.29-.29-.77-.29-1.06 0s-.29.77 0 1.06l2.25 2.25a.776.776 0 0 0 .53.22.753.753 0 0 0 .53-.22l2.25-2.25c.29-.29.29-.77 0-1.06Z"/><path d="M8.25 21h-6C1.01 21 0 19.99 0 18.75V2.25C0 1.01 1.01 0 2.25 0h10.63c.6 0 1.16.23 1.59.66l2.87 2.87c.42.43.66.99.66 1.59v3.13c0 .41-.34.75-.75.75s-.75-.34-.75-.75V5.12c0-.2-.08-.39-.22-.53l-2.87-2.87a.75.75 0 0 0-.53-.22H2.25c-.41 0-.75.34-.75.75v16.5c0 .41.34.75.75.75h6c.41 0 .75.34.75.75s-.34.75-.75.75Z"/></svg>