<svg xmlns="http://www.w3.org/2000/svg" viewBox="0 0 20 20" class="AvailabilityInfoTooltip-icon-hr8"><g transform="translate(0.625 0.625)"><path d="M7.768,14.929H7.723a1.5,1.5,0,0,1-1.2-.657L4.489,11.379a.625.625,0,0,1,1.022-.72l2.042,2.9.008.012a.249.249,0,0,0,.405.012l.007-.009L14.51,5.3a.625.625,0,1,1,.981.775L8.958,14.342A1.5,1.5,0,0,1,7.768,14.929Z" transform="translate(-0.625 -0.624)"/><path d="M10,0A10,10,0,1,1,0,10,10.011,10.011,0,0,1,10,0Zm0,18.75A8.75,8.75,0,1,0,1.25,10,8.76,8.76,0,0,0,10,18.749Z" transform="translate(-0.625 -0.624)"/></g></svg>