<svg xmlns="http://www.w3.org/2000/svg" width="13" height="13" viewBox="5641 835.999 14 17.001" title="Notifications" class="PrimaryNav-icon-r_P"><g><desc>View your notifications within Behance.</desc><path d="M5648 853a2.2 2.2 0 0 0 2-2h-4a2.2 2.2 0 0 0 2 2z"/><path d="M5652.57 840.692c0-1.72-1.6-2.445-3.57-2.634V836.5a.54.54 0 0 0-.572-.5h-.857a.54.54 0 0 0-.57.5v1.558c-1.97.188-3.57.916-3.57 2.634 0 7.71-2.43 7.363-2.43 8.385V850h14v-.922c0-1.077-2.43-.677-2.43-8.386z"/><path d="M5648 853a2.2 2.2 0 0 0 2-2h-4a2.2 2.2 0 0 0 2 2z"/><path d="M5652.57 840.692c0-1.72-1.6-2.445-3.57-2.634V836.5a.54.54 0 0 0-.572-.5h-.857a.54.54 0 0 0-.57.5v1.558c-1.97.188-3.57.916-3.57 2.634 0 7.71-2.43 7.363-2.43 8.385V850h14v-.922c0-1.077-2.43-.677-2.43-8.386z"/></g></svg>