<svg xmlns="http://www.w3.org/2000/svg" class="rf-icon rf-icon--api" width="16" height="16"><path fill="none" d="M0 0v16h16V0H0zm2 1l3 1.5-.543.543L6.25 4.835 4.836 6.25 3.043 4.457 2.5 5 1 2l1-1zm11.5 14c-.414 0-.789-.168-1.061-.439l-3.044-3.043 2.122-2.121 3.04 3.041c.273.271.443.646.443 1.062 0 .828-.672 1.5-1.5 1.5zm-2-7c-.412 0-.806-.075-1.173-.206l-6.764 6.762C3.292 14.83 2.916 15 2.5 15c-.828 0-1.5-.672-1.5-1.5 0-.414.168-.789.439-1.061l6.766-6.767C8.074 5.306 8 4.912 8 4.5 8 2.567 9.566 1 11.5 1c.412 0 .806.075 1.174.206L10.5 3.379V5.5h2.121l2.174-2.173c.131.367.205.761.205 1.173C15 6.433 13.434 8 11.5 8z"/><path d="M3.043 4.457L4.836 6.25 6.25 4.835 4.457 3.043 5 2.5 2 1 1 2l1.5 3M14.558 12.438l-3.04-3.041-2.122 2.121 3.044 3.043c.271.271.646.439 1.06.439.828 0 1.5-.672 1.5-1.5 0-.416-.17-.791-.442-1.062zM12.621 5.5H10.5V3.379l2.174-2.173C12.306 1.075 11.912 1 11.5 1 9.566 1 8 2.567 8 4.5c0 .412.074.806.205 1.173L1.439 12.44c-.271.271-.439.646-.439 1.06 0 .828.672 1.5 1.5 1.5.416 0 .792-.17 1.063-.443l6.764-6.762c.367.13.761.205 1.173.205C13.434 8 15 6.433 15 4.5c0-.412-.074-.806-.205-1.173L12.621 5.5z"/></svg>