<svg xmlns="http://www.w3.org/2000/svg" viewBox="0 0 19.997 20" class="AvailabilityInfoTooltip-icon-hr8"><g transform="translate(-778.375 0.625)"><g transform="translate(779 0)"><path d="M9.014,9.869a2.535,2.535,0,0,1,1.722.672q.019.017.036.036a2.542,2.542,0,0,1-.1,3.544c-.833.827-3.71,1.418-4.279,1.528a.625.625,0,0,1-.732-.733c.111-.569.7-3.443,1.528-4.277A2.521,2.521,0,0,1,9.014,9.869Zm.856,1.574a1.292,1.292,0,0,0-1.784.069l-.007.007a8.39,8.39,0,0,0-.984,2.7,8.361,8.361,0,0,0,2.7-.983l.008-.008A1.284,1.284,0,0,0,9.87,11.443Z" transform="translate(-0.625 -0.623)"/><path d="M10.608,5.265A.625.625,0,0,1,10.166,4.2L13.2,1.166a1.85,1.85,0,0,1,2.616,0l.867.867a.625.625,0,0,1-.884.884l-.867-.867a.6.6,0,0,0-.849,0L11.05,5.082A.623.623,0,0,1,10.608,5.265Z" transform="translate(-0.625 -0.623)"/><path d="M11.907,12.629a.623.623,0,0,1-.442-.183l-2.6-2.6a.625.625,0,0,1,0-.884L15.8,2.032a2.463,2.463,0,0,1,3.484,3.482l-6.933,6.932A.623.623,0,0,1,11.907,12.629ZM10.192,9.4l1.715,1.715L18.4,4.631a1.222,1.222,0,0,0,0-1.717,1.218,1.218,0,0,0-1.715,0Z" transform="translate(-0.625 -0.623)"/><path d="M16.24,8.3a.623.623,0,0,1-.442-.183l-2.6-2.6a.625.625,0,0,1,.884-.884l2.6,2.6A.625.625,0,0,1,16.24,8.3Z" transform="translate(-0.625 -0.623)"/><path d="M15.054,20H.937a.937.937,0,0,1-.663-1.6l.5-.5c1.368-1.368,1.36-2.269,1.308-8.134-.011-1.305-.024-2.785-.024-4.569A6.329,6.329,0,0,1,4.506.4c.1-.087.179-.163.235-.218A.625.625,0,0,1,5.183,0H8.89a.625.625,0,1,1,0,1.25H5.431l-.086.078A5.14,5.14,0,0,0,3.308,5.195c0,1.779.013,3.255.024,4.558.053,6,.064,7.274-1.641,9H14.925l.851-.85c1.362-1.362,1.339-2.736,1.3-5.23-.007-.449-.015-.913-.015-1.418a.625.625,0,0,1,1.25,0c0,.495.008.953.015,1.4.043,2.554.073,4.4-1.663,6.135l-.944.943A.937.937,0,0,1,15.054,20Z" transform="translate(-0.625 -0.623)"/></g></g></svg>