<svg xmlns="http://www.w3.org/2000/svg" width="8" height="13.42" viewBox="0 0 8 13.42" class="SearchContentTypeButton-btnArrow-lFf" aria-hidden="true"><path d="M1.28,0a1.07,1.07,0,0,1,.25,0L1.77.1A.91.91,0,0,1,2,.21,1.2,1.2,0,0,1,2.2.38L7.62,5.8a1.52,1.52,0,0,1,.28.43,1.15,1.15,0,0,1,.1.48,1.16,1.16,0,0,1-.1.49,1.34,1.34,0,0,1-.28.42L2.2,13a1.42,1.42,0,0,1-.43.29,1.32,1.32,0,0,1-.48.09,1.37,1.37,0,0,1-.49-.09A1.1,1.1,0,0,1,.38,13a1.34,1.34,0,0,1-.28-.42,1.23,1.23,0,0,1,0-1,1.34,1.34,0,0,1,.28-.42L4.9,6.72.38,2.18A1.34,1.34,0,0,1,.1,1.76a1.23,1.23,0,0,1,0-1A1.34,1.34,0,0,1,.38.38L.58.21A.65.65,0,0,1,.8.1L1,0a1,1,0,0,1,.24,0Z"/></svg>