<svg xmlns="http://www.w3.org/2000/svg" viewBox="0 0 25 18.76" aria-hidden="true"><path d="M7.82 10.16c2.8 0 5.08-2.28 5.08-5.08S10.62 0 7.82 0 2.73 2.28 2.73 5.08s2.28 5.08 5.07 5.08c-4.3 0-7.8 3.51-7.8 7.82a.781.781 0 0 0 1.56 0c0-3.45 2.8-6.25 6.25-6.25s6.25 2.8 6.25 6.25a.781.781 0 0 0 1.56 0c0-4.31-3.5-7.81-7.8-7.81ZM4.3 5.08c0-1.94 1.58-3.52 3.52-3.52s3.52 1.58 3.52 3.52S9.76 8.6 7.82 8.6 4.3 7.02 4.3 5.08ZM24.6 15.72a6.548 6.548 0 0 0-4.99-4.17c1.81-.5 3.16-2.15 3.16-4.12 0-2.37-1.93-4.3-4.3-4.3s-4.3 1.93-4.3 4.3c0 1.97 1.34 3.62 3.15 4.12-.37.07-.75.16-1.12.3-.4.15-.61.6-.46 1 .15.4.6.61 1 .46a4.98 4.98 0 0 1 6.7 4.67.781.781 0 0 0 1.56 0c0-.77-.14-1.53-.4-2.26Zm-8.87-8.29c0-1.51 1.23-2.73 2.73-2.73s2.73 1.23 2.73 2.73-1.23 2.73-2.73 2.73-2.73-1.23-2.73-2.73Z"/></svg>