<svg xmlns="http://www.w3.org/2000/svg" viewBox="0 0 25 25" aria-hidden="true"><g transform="translate(0, 2)"><path d="M7.37 9.22c-.73 0-1.42-.28-1.93-.8a2.7 2.7 0 0 1-.8-1.93c0-1.51 1.23-2.74 2.73-2.74s2.73 1.23 2.73 2.73c0 .73-.28 1.42-.8 1.93s-1.2.8-1.93.8ZM5.42 6.49h.78c0 .31.12.61.34.83a1.171 1.171 0 0 0 2-.83c0-.65-.53-1.17-1.17-1.17S6.2 5.85 6.2 6.49h-.78Z"/><path d="M6.98 16.1c-.15 0-.3-.04-.43-.13a.777.777 0 0 1-.22-1.08l2.99-4.48s.08-.11.09-.13c.27-.34.66-.55 1.1-.6.44-.05.87.08 1.22.35l.8.64 1.86-2.66a1.669 1.669 0 0 1 1.69-.68c.44.09.81.34 1.06.71l4.55 6.83c.24.36.14.84-.22 1.08-.36.24-.84.14-1.08-.22L15.84 8.9l-.13-.03-2.36 3.37c-.12.18-.32.3-.53.33a.81.81 0 0 1-.6-.16l-1.45-1.17s-.14.02-.14.03l-2.98 4.48c-.15.23-.4.35-.65.35Z"/><path d="M22.66 20.27H2.34C1.05 20.27 0 19.21 0 17.92V2.34C0 1.05 1.05 0 2.34 0h17.31c.63 0 1.24.26 1.68.71l3 3.08c.43.44.67 1.02.67 1.63v12.5c0 1.29-1.05 2.34-2.34 2.34ZM2.34 1.56c-.43 0-.78.35-.78.78v15.58c0 .43.35.78.78.78h20.31c.43 0 .78-.35.78-.78V5.42c0-.2-.08-.4-.22-.54l-3-3.08a.787.787 0 0 0-.56-.23H2.34Z"/></g></svg>